<?xml version="1.0" encoding="UTF-8"?>
<svg viewBox="0 0 1020 316.36386" xmlns="http://www.w3.org/2000/svg" xmlns:xlink="http://www.w3.org/1999/xlink">
 <defs>
  <clipPath id="b">
   <path d="m-472.54 425.35c5.296 66.849 2.4909 118.9-3.762 171.34 9.1772-34.854 59.579-26.971 66.392-4.7613-7.1542-56.191-4.8173-124.73 3.4665-167.48-7.5241-30.755-61.283-41.595-66.097 0.90064z"/>
  </clipPath>
  <clipPath id="i">
   <path d="m172.64 483.53c-152.75-62.67-314.82-98.198-486.1-93.746-24.272 0.63095-48.973 7.3811-49.651 34.388 0 0-3.9654 138.21 2.8355 156.27 1.3301-14.087 20.653-28.033 32.863-28.425 166.57-5.3497 306.71 23.856 439.58 79.348l60.464-147.83z"/>
  </clipPath>
  <clipPath id="h">
   <path d="m-383.27 378.66-51.649-18.498s-24.202 143.14-31.334 153.78 3.8087 25.001 13.551 27.731c14.761 4.1355 18.2-6.122 41.004-0.54159 11.219 2.7453 18.104 6.8566 23.973 19.399 1.2655-59.457 4.4554-181.87 4.4554-181.87z"/>
  </clipPath>
  <clipPath id="g">
   <path d="m-277.65 606.59s-49.952-168.94-57.115-166.71c-5.8839 1.8376-42.416 40.465-148.67-30.557 18.877 61.117-8.4167 167.35-8.4167 167.35-8.0881 21.772 1.7556 34.676 24.738 47.176 58.88 32.025 166.01 43.104 186.74 10.756 5.3132-8.2907 6.7784-17.898 2.7173-28.023z"/>
  </clipPath>
  <linearGradient id="c">
   <stop stop-color="#fee471" offset="0"/>
   <stop stop-color="#d1aa2f" offset=".22621"/>
   <stop stop-color="#f0ce70" offset=".38404"/>
   <stop stop-color="#e3ba46" offset=".5"/>
   <stop stop-color="#ffffe4" offset=".65417"/>
   <stop stop-color="#ffffa0" offset=".75895"/>
   <stop stop-color="#feef76" offset=".87947"/>
   <stop stop-color="#dfb23b" offset="1"/>
  </linearGradient>
  <linearGradient id="f" x1="-482.81" x2="-394.45" y1="761.38" y2="760.79" gradientTransform="matrix(3.0384 0 0 1.1174 970.59 -309.44)" gradientUnits="userSpaceOnUse">
   <stop stop-color="#2e0b0b" offset="0"/>
   <stop stop-color="#2e0b0b" stop-opacity="0" offset=".3928"/>
   <stop stop-color="#2e0b0b" offset="1"/>
  </linearGradient>
  <linearGradient id="e" x1="-474.75" x2="-350.48" y1="449.86" y2="448.33" gradientUnits="userSpaceOnUse">
   <stop stop-color="#2e0b0b" offset="0"/>
   <stop stop-color="#2e0b0b" stop-opacity="0" offset=".5"/>
   <stop stop-color="#2e0b0b" offset="1"/>
  </linearGradient>
  <linearGradient id="a" x1="-493.48" x2="-418.85" gradientUnits="userSpaceOnUse">
   <stop stop-color="#eda7ad" stop-opacity="0" offset="0"/>
   <stop stop-color="#ffe5e7" stop-opacity=".81132" offset=".5"/>
   <stop stop-color="#ffc2c7" offset=".68572"/>
   <stop stop-color="#fdd1d5" stop-opacity="0" offset="1"/>
  </linearGradient>
  <linearGradient id="d" x1="143.33" x2="216.5" y1="233.93" y2="231.81" gradientTransform="matrix(.94985 0 0 1.1853 -516.36 207.71)" gradientUnits="userSpaceOnUse">
   <stop stop-color="#eda7ad" stop-opacity="0" offset="0"/>
   <stop stop-color="#ffe5e7" stop-opacity=".81132" offset=".45633"/>
   <stop stop-color="#ffe5e7" offset=".63099"/>
   <stop stop-color="#fdd1d5" stop-opacity="0" offset="1"/>
  </linearGradient>
  <linearGradient id="k" x1="341.43" x2="694.29" y1="510.93" y2="509.51" gradientTransform="matrix(1.2898 0 0 1 328.81 -317.16)" gradientUnits="userSpaceOnUse" spreadMethod="reflect">
   <stop stop-color="#fff" offset="0"/>
   <stop stop-color="#fff" stop-opacity="0" offset="1"/>
  </linearGradient>
  <linearGradient id="m" x1="144.59" x2="328.21" y1="280.85" y2="193.71" gradientUnits="userSpaceOnUse" xlink:href="#c"/>
  <linearGradient id="l" x1="-283.99" x2="-100.38" y1="598.01" y2="510.86" gradientTransform="matrix(-1 0 0 1 1114.3 -317.16)" gradientUnits="userSpaceOnUse" xlink:href="#c"/>
  <radialGradient id="j" cx="342.84" cy="285.04" r="514.3" gradientTransform="matrix(.73686 -.00269 .00391 1.0694 517.69 -153.74)" gradientUnits="userSpaceOnUse" xlink:href="#c" spreadMethod="reflect"/>
 </defs>
 <g transform="matrix(.79101 0 0 .79101 -100.2 -41.438)">
  <path d="m407 349.6s-111.38-136.5-117.12-131.67c-4.7161 3.9693-23.477 53.715-148.92 29.287 41.035 49.069 56.93 157.6 56.93 157.6 0.95704 23.206 15.024 31.302 41.051 33.946 66.682 6.7746 169.77-24.42 176.38-62.267 1.6953-9.7001-0.66727-19.127-8.3267-26.895z" fill="#950713"/>
  <path transform="matrix(.92226 -.38656 .38656 .92226 428.58 -317.16)" d="m-509.53 429.12h251.75v229.88h-251.75z" clip-path="url(#g)" fill="url(#f)" opacity=".75"/>
  <path d="m295.27 228.4c-0.14046 8e-3 -0.25404 0.0495-0.34375 0.125-4.7161 3.9693-23.462 53.741-148.91 29.312 2.5926 3.1002 7.0745 8.4362 9.4688 11.969 123.69 23.535 142.31-25.739 147-29.688l-7.2188-11.719zm97.844 104.06c0.98195 4.232 1.0604 8.6704 0.34375 13.156-6.0467 37.847-100.29 69.025-161.25 62.25-23.793-2.6443-36.656-10.731-37.531-33.938l0.0937 15c0.91223 23.206 14.316 31.293 39.125 33.938 63.56 6.7746 161.82-24.403 168.12-62.25 1.6159-9.7001-0.63668-19.138-7.9375-26.906l-0.96875-1.25z" fill="url(#m)"/>
  <path d="m295.02 230.72c-0.43094 0.55455-0.73601 0.91753-1.5312 2.0312-1.2212 1.7103-2.8827 3.9588-5.125 6.4375-4.4846 4.9574-11.342 10.91-22 15.938-20.876 9.8475-56.387 16.006-116.94 4.75 2.3457 2.8245 4.9523 5.9093 6.8438 8.625 61.322 11.593 96.43 5.1726 116.72-4.5 10.173-4.8502 16.639-10.526 20.875-15.219 2.1178-2.3466 3.6871-4.4624 4.875-6.125 0.84939-1.1888 1.4111-1.8614 2.0312-2.5938l-5.75-9.3438zm100.19 106.84c0.17225 2.7332 0.10126 5.4958-0.34375 8.2812-1.598 10.002-8.9159 19.297-19.719 27.562s-25.15 15.53-41.219 21.406c-32.137 11.751-71.077 17.892-101.88 14.469-12.027-1.3367-21.486-4.0263-28.125-9.5625-3.3488-2.7926-5.9003-6.3171-7.6875-10.625 0.48377 11.199 3.8515 18.462 10.031 23.406 6.2236 4.979 15.502 7.66 27.781 8.9688 31.473 3.3546 71.802-2.7335 104.91-14.344 16.552-5.8051 31.292-12.982 42.219-21s17.955-16.85 19.438-25.75c1.3639-8.1873-0.30575-15.979-5.4062-22.812z" fill="none" opacity=".8" stroke="#92421a" stroke-dasharray="2, 1"/>
  <path d="m310.06 195.89-54.487 11.254s58.563 131.66 58.353 144.2 17.112 18.849 26.969 16.094c14.934-4.1747 12.197-14.489 34.821-21.612 11.13-3.504 19.306-3.6347 31.28 3.7787-31.854-50.153-96.937-153.72-96.937-153.72z" fill="#970713"/>
  <path d="m140.74 249.73c28.994 60.466 45.104 110.04 58.138 161.22-3.9783-35.822 45.884-46.602 60.233-28.331-26.893-49.854-49.373-114.64-57.025-157.51-18.086-25.988-72.145-16.759-61.346 24.623z" fill="#ab0816"/>
  <path transform="matrix(.85655 -.51607 .55397 .83254 428.58 -317.16)" d="m-470.98 356.83h86.592v210.47h-86.592z" clip-path="url(#h)" fill="url(#e)" opacity=".75"/>
  <path d="m1135.9 349.6s111.38-136.5 117.12-131.67c4.7161 3.9693 23.477 53.715 148.92 29.287-41.035 49.069-56.93 157.6-56.93 157.6-0.9571 23.206-15.024 31.302-41.051 33.946-66.682 6.7746-169.77-24.42-176.38-62.267-1.6952-9.7001 0.6673-19.127 8.3267-26.895z" fill="#950713"/>
  <path transform="matrix(-.92226 -.38656 -.38656 .92226 1114.3 -317.16)" d="m-509.53 429.12h251.75v229.88h-251.75z" clip-path="url(#g)" fill="url(#f)" opacity=".75"/>
  <path d="m1247.6 228.4c0.1405 8e-3 0.2541 0.0495 0.3438 0.125 4.7161 3.9693 23.462 53.741 148.91 29.312-2.5926 3.1002-7.0745 8.4362-9.4687 11.969-123.69 23.535-142.31-25.739-147-29.687l7.2187-11.719zm-97.844 104.06c-0.982 4.232-1.0605 8.6704-0.3438 13.156 6.0467 37.847 100.29 69.025 161.25 62.25 23.793-2.6443 36.656-10.731 37.531-33.938l-0.094 15c-0.9123 23.206-14.316 31.293-39.125 33.938-63.56 6.7746-161.82-24.403-168.12-62.25-1.6159-9.7001 0.6366-19.138 7.9375-26.906l0.9687-1.25z" fill="url(#l)"/>
  <g transform="translate(428.58 -317.16)" fill="none" opacity=".8" stroke="#92421a" stroke-dasharray="2, 1">
   <path d="m819.25 547.88-5.75 9.3438c0.6201 0.73235 1.1818 1.4049 2.0312 2.5938 1.1879 1.6626 2.7572 3.7784 4.875 6.125 4.2355 4.6932 10.702 10.369 20.875 15.219 20.288 9.6726 55.396 16.093 116.72 4.5 1.8913-2.7158 4.498-5.8005 6.8437-8.625-60.551 11.256-96.062 5.0975-116.94-4.75-10.658-5.0274-17.515-10.98-22-15.938-2.2423-2.4787-3.9038-4.7272-5.125-6.4375-0.7952-1.1137-1.1003-1.4767-1.5312-2.0312z"/>
   <path d="m719.06 654.72c-5.1005 6.8338-6.7701 14.625-5.4062 22.812 1.4826 8.8999 8.511 17.732 19.438 25.75s25.667 15.195 42.219 21c33.104 11.61 73.433 17.698 104.91 14.344 12.279-1.3087 21.558-3.9897 27.781-8.9688 6.1797-4.9439 9.5474-12.207 10.031-23.406-1.7872 4.3079-4.3387 7.8324-7.6875 10.625-6.6389 5.5362-16.098 8.2258-28.125 9.5625-30.798 3.4228-69.738-2.7173-101.88-14.469-16.068-5.8758-30.416-13.141-41.219-21.406s-18.121-17.56-19.719-27.562c-0.44503-2.7854-0.51601-5.548-0.34375-8.2812z"/>
  </g>
  <path d="m1232.8 195.89 54.487 11.254s-58.563 131.66-58.353 144.2-17.112 18.849-26.969 16.094c-14.934-4.1747-12.197-14.489-34.821-21.612-11.13-3.504-19.306-3.6347-31.28 3.7787 31.854-50.153 96.937-153.72 96.937-153.72z" fill="#970713"/>
  <path d="m1402.1 249.73c-28.994 60.466-45.104 110.04-58.138 161.22 3.9782-35.822-45.884-46.602-60.233-28.331 26.893-49.854 49.373-114.64 57.025-157.51 18.086-25.988 72.145-16.759 61.346 24.623z" fill="#ab0816"/>
  <path transform="matrix(-.85655 -.51607 -.55397 .83254 1114.3 -317.16)" d="m-470.98 356.83h86.592v210.47h-86.592z" clip-path="url(#h)" fill="url(#e)" opacity=".75"/>
  <path d="m771.43 65.029c-165.11-0.17887-328.56 28.29-485.41 97.25-22.227 9.7726-42.534 25.371-32.938 50.625 0 0 48.649 129.42 61.781 143.56-4.1019-13.543 8.5036-33.765 19.656-38.75 152.15-68.008 292.91-94.027 436.91-92.969 144-1.058 284.76 24.96 436.91 92.969 11.153 4.9852 23.758 25.207 19.656 38.75 13.132-14.142 61.781-143.56 61.781-143.56 9.5965-25.254-10.711-40.852-32.938-50.625-156.84-68.96-320.3-97.429-485.41-97.25z" fill="#bb0918"/>
  <path transform="matrix(-.93303 -.35981 -.35981 .93303 1114.3 -317.16)" d="m-493.48 395.58h74.631v203.2h-74.631z" clip-path="url(#b)" fill="url(#a)" opacity=".7"/>
  <path d="m770.08 82.811c-162.36 0.74633-323.06 29.415-477.34 97.25-22.227 9.7726-42.784 24.652-33.188 49.906 0 0 1.6578 4.5111 3.6562 9.75-6.2454-23.017 13.138-37.544 34.219-46.812 153.23-67.373 312.77-96.076 474-97.188 161.23 1.1115 320.77 29.814 474 97.188 21.081 9.2686 40.464 23.796 34.219 46.812 1.9985-5.2389 3.6563-9.75 3.6563-9.75 9.5964-25.254-10.961-40.134-33.188-49.906-154.29-67.835-314.98-96.504-477.34-97.25h-2.6875zm-20.469 107.31c-142.38-0.46614-281.75 25.757-432.25 93.031-11.153 4.9852-24.633 26.27-20.531 39.812l7.125 14.562c-4.1019-13.543 9.4098-34.827 20.562-39.812 155.67-69.584 299.41-95.235 446.91-92.875 147.49-2.36 291.23 23.291 446.91 92.875 11.153 4.9852 24.664 26.27 20.562 39.812l7.125-14.562c4.1019-13.543-9.3785-34.827-20.531-39.812-150.5-67.274-289.87-93.497-432.25-93.031-7.2638 0.0238-14.531 0.12045-21.812 0.28125-7.2814-0.1608-14.549-0.25747-21.812-0.28125z" fill="url(#j)"/>
  <path transform="matrix(-.92557 -.37856 -.37856 .92557 1114.3 -317.16)" d="m-383.38 386.62h74.631v203.2h-74.631z" clip-path="url(#i)" fill="url(#d)" opacity=".65"/>
  <path transform="matrix(-.93303 -.35981 -.35981 .93303 1114.3 -317.16)" d="m-493.48 395.58h74.631v203.2h-74.631z" clip-path="url(#b)" fill="url(#a)" opacity=".7"/>
  <path transform="matrix(.93303 -.35981 .35981 .93303 428.58 -317.16)" d="m-493.48 395.58h74.631v203.2h-74.631z" clip-path="url(#b)" fill="url(#a)" opacity=".7"/>
  <path transform="matrix(.92557 -.37856 .37856 .92557 428.58 -317.16)" d="m-383.38 386.62h74.631v203.2h-74.631z" clip-path="url(#i)" fill="url(#d)" opacity=".65"/>
  <path transform="matrix(.93303 -.35981 .35981 .93303 428.58 -317.16)" d="m-493.48 395.58h74.631v203.2h-74.631z" clip-path="url(#b)" fill="url(#a)" opacity=".7"/>
  <path d="m301.99 330.25c0.38797-5.477 2.3386-11.255 5.2812-16.531 4.3752-7.8451 10.585-14.599 16.656-17.312 155.83-69.655 299.82-95.355 447.47-93h0.0625c147.65-2.3547 291.64 23.345 447.47 93 6.0716 2.714 12.281 9.4674 16.656 17.312 2.9426 5.2763 6.4111 11.59 5.2812 19.388m4.0491-8.2544c1.8498-6.1546-0.5448-16.873-4.6741-24.29-4.1356-7.429-10.263-13.823-15.344-16.094-150.33-67.197-289.46-93.372-431.66-92.906-7.2543 0.0238-14.508 0.12063-21.781 0.28125h-0.0625c-7.2731-0.16062-14.527-0.2575-21.781-0.28125-142.2-0.46556-281.33 25.709-431.66 92.906-5.0807 2.271-11.208 8.6647-15.344 16.094-4.1293 7.4176-6.256 15.814-4.4062 21.969m471.88-238.28c-162.2 0.74558-322.69 29.377-476.78 97.125-11.017 4.8441-21.53 10.951-28 18.75-5.4264 6.5412-11.225 16.842-2.242 38.931 0.64597 1.5884-2.7123-4.2654-2.3205-10.056 0.54427-7.1679 3.5908-13.45 8.25-18.781 6.9281-7.9282 17.231-13.945 27.875-18.625 153.43-67.46 313.17-96.2 474.56-97.312 161.39 1.1126 321.13 29.852 474.56 97.312 10.644 4.6801 20.947 10.697 27.875 18.625 4.6592 5.3317 8.7771 11.256 8.0714 23.781 4.2171-12.522 2.8934-25.643-4.3839-33.875-6.7116-7.5919-16.983-13.906-28-18.75-154.09-67.748-314.58-96.379-476.78-97.125h-2.6875z" fill="none" opacity=".75" stroke="#92421a" stroke-dasharray="2, 1"/>
  <path d="m771.43 65.029c-152.72-0.16545-304.03 24.178-450 82.406v182.5c3.7978-5.6065 8.5504-10.188 13.094-12.219 152.15-68.008 292.91-94.027 436.91-92.969 144-1.058 284.76 24.96 436.91 92.969 5.7707 2.5795 11.936 9.2354 15.969 16.938v-186.06c-146.86-59.058-299.15-83.729-452.88-83.562z" fill="url(#k)" opacity=".15"/>
 </g>
</svg>
